<svg width="220" height="61" viewBox="0 0 220 61" fill="none" xmlns="http://www.w3.org/2000/svg">
<mask id="mask0_1_976" style="mask-type:luminance" maskUnits="userSpaceOnUse" x="0" y="0" width="220" height="61">
<path d="M0.58667 0.199951H219.413V60.3333H0.58667V0.199951Z" fill="white"/>
</mask>
<g mask="url(#mask0_1_976)">
<path d="M156.108 0.2229C156.012 0.2229 155.932 0.252692 155.868 0.316859C155.778 0.408526 155.645 1.14186 155.572 1.95082L155.439 3.41748L156.097 4.09582C157.185 5.21873 158.141 6.46769 158.586 7.35227C158.939 8.05123 158.984 8.37665 158.877 9.34603C158.764 10.32 158.794 10.5056 159.046 10.5056C159.544 10.5056 159.858 9.19019 159.858 7.10019C159.858 5.30123 159.809 5.06519 159.25 3.98582C158.123 1.8179 156.773 0.23665 156.108 0.2229ZM88.463 2.1479C88.1696 2.15936 88 2.60165 87.8213 3.4954L87.5669 4.75353L88.1582 5.53728C90.5598 8.71353 90.8944 10.1412 89.9365 13.1296C89.7303 13.7712 89.6019 14.3625 89.6478 14.445C89.925 14.9102 90.3788 14.2227 90.8784 12.5796C92.0723 8.66311 91.7607 5.87873 89.8563 3.44727C89.1734 2.57415 88.754 2.14103 88.463 2.1479ZM127.018 2.19373C126.793 2.18228 126.392 2.29686 125.581 2.56498C124.745 2.84228 123.578 3.21582 122.989 3.39686C110.364 7.26061 104.583 9.29103 96.9673 12.5292C94.8017 13.4481 92.9867 14.2021 92.9317 14.2021C92.84 14.2021 91.1809 14.9537 88.0871 16.3998C86.8107 16.9956 86.7213 17.0827 86.0773 18.3569C85.7084 19.0925 85.4563 19.8212 85.5159 19.9794C85.5778 20.1375 85.6923 20.2383 85.7725 20.2016C85.8528 20.1673 87.0559 19.5829 88.4469 18.9046C90.5828 17.8664 95.2715 15.7696 99.6371 13.9042C102.651 12.6162 109.982 9.99915 114.913 8.45228C116.838 7.84728 119.16 7.11165 120.07 6.81603C120.979 6.52269 122.6 6.03915 123.67 5.74123C125.558 5.21873 125.643 5.17061 126.491 4.14853C127.451 2.99582 127.554 2.76207 127.284 2.34269C127.224 2.25103 127.153 2.20061 127.018 2.19373ZM53.389 6.26144C53.1575 6.22707 52.0186 6.51811 50.859 6.90311C49.6994 7.2904 48.093 7.78311 47.2909 7.99623C45.8746 8.37436 44.699 8.74103 36.8798 11.2596C34.8448 11.9127 31.9115 12.9623 30.3601 13.5902L27.539 14.7337L27.1059 15.781C26.8698 16.3585 26.6682 17.0208 26.6682 17.2546C26.6567 17.6625 26.7255 17.651 28.364 16.8971C31.5173 15.4487 33.7953 14.5321 35.0671 14.1975C35.5278 14.0783 36.7378 13.6887 37.7553 13.3358C40.9361 12.2312 46.1542 10.5492 47.7263 10.1229C52.0759 8.94269 52.0759 8.94269 53.0201 8.01228C53.9986 7.04748 54.1407 6.36686 53.389 6.26144ZM142.544 6.27978C142.132 6.23853 141.224 7.44853 140.699 8.77998C140.314 9.75852 140.213 10.3658 140.213 11.6904C140.213 13.4435 140.383 13.8881 141.178 14.2112C141.843 14.4794 142.031 14.4221 142.828 13.7025C143.543 13.0562 144.013 12.135 144.29 10.8448C144.384 10.4048 144.336 10.3085 144.024 10.3085C143.816 10.3085 143.591 10.4758 143.527 10.6821C143.337 11.2779 142.645 12.0594 142.306 12.0594C141.696 12.0594 141.284 11.4544 141.284 10.5606C141.284 9.92352 141.449 9.44686 141.941 8.67686C142.707 7.48061 142.979 6.52728 142.622 6.30498C142.597 6.29123 142.572 6.28207 142.544 6.27978ZM178.104 7.42103C178.081 7.42103 178.056 7.43248 178.033 7.43707C177.888 7.49436 177.515 8.21394 177.201 9.04123C176.71 10.3383 176.665 10.6225 176.855 11.1542C177.093 11.8141 177.279 12.9325 177.856 17.2179C178.562 22.4429 179.053 25.6008 179.513 27.92C179.768 29.2056 180.205 31.6577 180.485 33.3696C180.764 35.0814 181.131 37.3021 181.301 38.3035C181.47 39.3073 181.608 40.9916 181.624 42.0504C181.635 43.1091 181.709 43.9754 181.789 43.9754C182.059 43.9754 182.52 42.0389 182.749 39.926C183.013 37.5266 182.87 33.2344 182.447 30.7433C182.293 29.8335 182.027 28.2569 181.855 27.2394C181.683 26.2241 181.461 25.1264 181.358 24.801C181.257 24.4756 181 22.8989 180.79 21.2971C180.579 19.6952 180.32 17.8664 180.212 17.2294C180.104 16.5946 180.045 16.0469 180.077 16.0125C180.111 15.9781 180.648 16.4296 181.271 17.0139C181.894 17.6006 182.49 18.0269 182.593 17.9627C183.198 17.5891 182.133 14.335 180.047 10.1871C179.073 8.2529 178.477 7.40269 178.104 7.42103ZM77.9923 8.8029C77.7013 8.8029 77.463 8.93353 77.094 9.24519C76.2186 9.98082 75.8863 10.721 75.6136 12.5337C75.3844 14.06 75.3707 14.0875 75.1301 13.5191C74.9948 13.1983 74.8023 12.8041 74.7084 12.6437C74.6121 12.4833 74.4448 12.1487 74.3394 11.8989C73.888 10.8539 72.9232 9.70811 72.2632 9.43082C71.209 8.99082 70.1434 9.05269 69.779 9.5729C69.4719 10.0106 69.3734 11.5621 69.598 12.4008C69.7515 12.976 70.6773 12.9921 71.39 12.4329L71.908 12.025L72.6848 12.8821C73.1134 13.3564 73.7138 14.2617 74.0186 14.8964C74.3257 15.5312 74.6992 16.2462 74.8505 16.4869C75.004 16.7275 75.2171 16.9246 75.3271 16.9246C75.6778 16.9246 76.0628 15.6848 76.3423 13.6498C76.6403 11.4796 76.9588 10.8929 77.8434 10.8929C78.508 10.8929 78.9961 11.4291 79.1405 12.3252C79.3307 13.4962 79.6836 13.5696 80.1832 12.536C80.5751 11.7271 80.5934 11.5621 80.3711 10.8883C80.064 9.9579 79.0946 8.99311 78.3109 8.83498C78.194 8.81207 78.0909 8.80061 77.9923 8.8029ZM151.287 8.82353C151.122 8.80519 150.98 8.92207 150.67 9.22457C150.377 9.50873 149.77 10.0496 149.323 10.4254C148.69 10.9548 148.466 11.31 148.317 12.0158C148.202 12.5131 148.165 12.9921 148.218 13.0769C148.271 13.1616 148.658 13.4092 149.08 13.6223C149.499 13.8377 149.843 14.0577 149.843 14.1127C149.843 14.3281 148.376 15.5037 147.244 16.1958C146.587 16.5969 145.459 17.1514 144.735 17.4287C143.454 17.9191 143.27 18.0681 143.568 18.3706C143.832 18.6364 145.278 18.3523 146.323 17.8275C146.884 17.5456 147.453 17.3141 147.583 17.3141C147.886 17.3141 149.337 16.2829 150.267 15.4075L150.98 14.736L151.562 15.1485C152.439 15.7741 153.021 15.6848 153.707 14.8208C154.637 13.6452 154.642 13.3129 153.739 11.5804C152.971 10.1046 152.579 9.62332 151.642 8.99769C151.491 8.89686 151.385 8.83498 151.287 8.82353ZM125.414 9.24519C125.274 9.24519 125.166 9.38957 124.937 9.76311C124.719 10.116 124.369 10.8677 124.156 11.4337C123.817 12.3298 123.803 12.5177 124.037 12.8935C124.185 13.1296 124.362 13.8927 124.428 14.5894C124.497 15.2837 124.768 17.1239 125.031 18.6754C125.941 24.0425 126.663 28.1216 127.064 30.1566C127.777 33.7729 127.836 34.1075 128.178 36.5114C128.569 39.2683 128.597 39.1927 126.83 40.075C123.991 41.4935 121.261 40.2835 119.989 37.0408C119.694 36.2914 119.284 35.5719 119.075 35.4412C118.729 35.2258 118.649 35.3129 118.119 36.4931C117.801 37.2012 117.54 38.0262 117.54 38.3264C117.54 38.6244 117.888 39.8802 118.314 41.1131C118.74 42.346 119.144 43.6981 119.21 44.1175C119.329 44.8691 119.311 44.8966 118.094 45.866C116.314 47.2823 112.931 49.4983 111.277 50.3325C110.073 50.9375 109.61 51.0612 108.268 51.1346C106.863 51.2102 106.56 51.1621 105.618 50.7152C103.418 49.6748 102.623 47.9858 102.715 44.5552C102.745 43.4323 102.786 42.1856 102.809 41.7869C102.832 41.3881 102.768 41.0535 102.671 41.0466C102.092 40.9985 101.31 45.7698 101.427 48.6389C101.521 50.9352 102.057 52.4889 103.082 53.4216C103.725 54.0129 105.488 54.886 106.448 55.09C107.548 55.3237 108.847 55.1289 110.177 54.5262C112.739 53.3644 118.498 49.0514 119.565 47.4954C120.127 46.675 120.849 44.9058 120.849 44.3489C120.849 43.7737 121.254 43.7164 122.224 44.1564C123.47 44.7225 124.981 44.6858 126.202 44.0579C127.414 43.4346 128.361 42.4079 128.524 41.5394C128.592 41.1727 128.867 40.3775 129.138 39.7679C130.611 36.4358 130.536 33.5437 128.73 24.2212C128.462 22.8302 127.967 20.0756 127.632 18.1002L127.023 14.5069L127.536 13.5948C127.818 13.0929 128.049 12.5154 128.049 12.3137C128.049 11.9241 126.434 9.89373 125.737 9.40561C125.595 9.30707 125.499 9.24748 125.414 9.24519ZM133.089 9.33686C132.985 9.33686 132.596 10.0152 132.218 10.8448L131.53 12.3527L131.833 13.9087C132.268 16.1339 133.024 21.2375 133.393 24.416C133.565 25.9148 133.833 28.0621 133.989 29.185C135.302 38.6885 136.088 48.3731 135.699 50.2041C135.591 50.6877 135.548 51.1896 135.591 51.3225C135.635 51.4554 135.703 51.5631 135.747 51.5631C135.921 51.5631 136.407 50.3944 136.696 49.2783C137.711 45.3641 137.887 41.6929 137.312 36.4816C136.957 33.2504 135.38 20.3873 135.062 18.091C134.745 15.8337 134.8 15.27 135.458 14.0073C136.109 12.7606 136.1 12.6919 135.151 11.64C134.83 11.2825 134.276 10.6179 133.918 10.1619C133.563 9.70811 133.189 9.33457 133.089 9.33457V9.33686ZM169.767 9.55686C169.414 9.56832 169.116 9.83186 168.751 10.3612C167.894 11.6056 167.553 12.5727 167.553 13.7483C167.553 14.8689 167.915 15.8039 168.477 16.1316C168.664 16.2394 169.148 16.3356 169.551 16.3356C170.14 16.3356 170.45 16.1889 171.117 15.5748C172.773 14.0462 172.766 11.7706 171.1 10.3039C170.525 9.79748 170.12 9.54769 169.767 9.55686ZM150.794 10.9044H150.927C151.195 10.9433 151.305 11.2275 151.245 11.7477C151.156 12.5314 151.165 12.5269 150.269 12.135C149.545 11.8187 149.545 11.5117 150.269 11.1037C150.475 10.9869 150.65 10.9204 150.794 10.9044ZM169.469 11.3787L170.262 12.1487C170.699 12.5704 171.055 13.0287 171.055 13.1639C171.055 13.3014 170.798 13.5466 170.482 13.7094C169.723 14.1012 169.24 14.0852 168.848 13.6498C168.401 13.1571 168.447 12.646 168.999 11.9631L169.469 11.3787ZM61.2059 11.6698C60.9996 11.6698 60.6536 12.1762 60.2205 13.1158C59.4436 14.7956 59.4275 14.9148 59.9203 15.451C60.1609 15.7146 60.3923 16.4869 60.5917 17.7014C61.0317 20.3964 61.804 24.1616 62.6611 27.8214C64.7992 36.9262 65.583 42.0206 65.583 46.7919C65.583 50.3737 65.3607 50.8344 64.0705 49.9383C62.1798 48.6252 61.4442 47.6054 60.6055 45.1419C60.1242 43.7302 60.0486 43.2146 60.0738 41.6379C60.0898 40.5471 60.2571 39.1698 60.4817 38.276C60.8736 36.7131 60.7246 36.0508 60.2411 37.2081C59.7025 38.4983 58.9623 41.8464 58.8432 43.5285C58.5476 47.7498 59.8217 51.0544 62.5786 53.2154C63.9903 54.3223 65.0467 54.7806 66.7975 55.0487C68.5828 55.3214 71.0051 55.1198 72.7421 54.556C75.8703 53.5408 82.0119 49.92 84.6267 47.5504C85.8917 46.4046 86.4669 45.4283 86.703 44.0281C86.7717 43.6225 87.1017 42.4606 87.4386 41.4431C87.8992 40.0544 88.0482 39.25 88.0482 38.205V36.8162L89.1023 36.5802C90.3834 36.2937 91.4513 35.3794 92.6453 33.546C93.0967 32.8539 93.5092 32.3269 93.5619 32.3796C93.6123 32.43 93.6765 33.0739 93.6971 33.8073C93.7567 35.6635 94.458 36.9423 96.1011 38.1821C96.7771 38.6908 97.5288 39.1079 97.774 39.1079C98.175 39.1079 98.2507 38.9521 98.5371 37.5014C98.7113 36.6191 98.8786 35.7231 98.9107 35.5077C98.9565 35.1891 99.1742 35.0929 100.123 34.976C100.758 34.8958 101.59 34.7308 101.968 34.6094C103.221 34.2037 106.32 32.5629 108.639 31.0733C112.122 28.8389 113.612 28.3531 118.032 28.0139C119.637 27.8879 121.083 27.7229 121.243 27.6427C121.403 27.5625 121.926 26.8589 122.403 26.0798C123.202 24.7781 123.246 24.6452 122.934 24.4206C122.694 24.2442 121.085 24.141 117.203 24.0585C114.233 23.9944 111.412 23.8935 110.928 23.8362C106.824 23.3344 104.958 22.986 102.561 22.2779C99.1261 21.265 98.615 21.1664 97.1163 21.2352C95.7596 21.2948 95.5098 21.3681 94.859 21.8952C94.3251 22.3283 94.0042 22.8279 93.6742 23.7446C92.9019 25.8873 92.7186 25.7612 96.438 25.6146C99.6967 25.4862 100.641 25.6031 102.756 26.4098C103.217 26.5839 106.242 27.0996 108.258 27.3448C108.767 27.4066 109.138 27.5327 109.083 27.6221C108.987 27.7802 105.999 29.586 105.577 29.7419C105.469 29.7831 104.796 30.0673 104.078 30.3789C102.133 31.2177 101.085 31.3644 99.275 31.0481C97.8634 30.8006 97.0269 30.4477 96.3692 29.8175C96.2271 29.6823 95.7184 29.3019 95.2394 28.9719C94.403 28.3966 94.348 28.3852 93.8828 28.6923C93.6146 28.8664 93.248 29.256 93.0646 29.5539C92.3932 30.6608 91.3482 31.7952 90.5071 32.3291C89.7738 32.7966 89.4392 32.8814 88.3117 32.8814C86.609 32.8814 85.784 32.5308 85.1653 31.55C84.8948 31.1214 84.5855 30.7181 84.4778 30.6516C84.2303 30.4981 83.765 31.5958 83.4671 33.0419L83.238 34.1533L84.464 36.2571C86.098 39.0552 86.7809 41.5508 86.2103 42.6187C85.9994 43.0129 83.8475 44.7889 82.225 45.9073C79.9059 47.5069 75.4646 49.8031 73.1753 50.5891C71.6513 51.1139 71.248 51.1712 69.2611 51.1506C66.6807 51.1231 65.8511 50.981 65.945 50.5777C65.9817 50.4241 66.2132 49.5098 66.4561 48.545C67.2032 45.6116 67.4048 43.5148 67.2811 39.9398C67.1734 36.8071 66.6669 33.106 65.8878 29.7671C65.725 29.0704 65.3675 27.4112 65.0903 26.0798C64.8153 24.746 64.5403 23.5773 64.4807 23.481C64.4234 23.3871 64.0911 21.8998 63.745 20.1764L63.1171 17.046L63.6809 15.9758C64.1667 15.05 64.2125 14.8323 64.02 14.3694C63.7405 13.691 61.6367 11.6698 61.2105 11.6698H61.2059ZM50.458 11.9173C50.0707 11.9425 49.8094 12.41 49.3442 13.6612C48.8584 14.9698 48.8469 15.0889 49.1288 15.6481C49.2961 15.9781 49.6467 17.9719 49.9194 20.1352C50.4946 24.7071 50.8888 27.0606 51.9521 32.2719C53.334 39.0369 53.8198 42.2452 53.5425 42.7608C53.2561 43.2971 50.9851 44.271 48.6544 44.8577C41.2386 46.7231 38.4451 48.2127 33.7448 52.8098C31.0728 55.4223 29.5282 56.3687 28.2746 56.1648C26.6292 55.8989 25.6851 54.4598 25.7034 52.2506C25.7194 50.211 25.9119 49.3562 26.4069 49.1385C26.8194 48.9552 27.2365 47.8414 27.539 46.1135L27.6582 45.4306L25.5567 44.2825C22.0001 42.3369 21.0215 41.3354 21.0215 39.6235C21.0215 38.48 21.4661 37.6596 22.3071 37.2608C23.1803 36.8483 23.5996 36.8919 24.2505 37.4671C25.8042 38.8398 26.4505 39.2866 27.303 39.5731C28.403 39.9421 29.8467 39.9764 30.7703 39.6556C31.4371 39.4219 35.3055 36.9194 37.4642 35.3221C39.8773 33.5369 41.3555 33.0716 45.5401 32.7737C46.5575 32.7027 47.5063 32.5491 47.6484 32.4323C47.7928 32.3177 48.2053 31.6302 48.5696 30.9083C49.5436 28.9719 49.6857 29.0246 43.8442 29.0314C39.6757 29.0314 38.5321 28.9673 35.4201 28.5273C32.2644 28.0804 29.9613 27.5694 26.3726 26.5152C24.7157 26.0294 23.414 26.1164 22.2178 26.7925C21.2438 27.3448 21.1498 27.4662 20.719 28.7198C19.9536 30.9473 19.8092 30.8212 22.9488 30.67C25.5842 30.5439 25.724 30.5577 28.3594 31.2039C29.8444 31.5706 32.2392 32.0198 33.6807 32.2054C35.1198 32.391 36.3551 32.5973 36.4284 32.6637C36.614 32.8333 35.2161 33.8462 33.2109 34.9875C30.0736 36.7773 28.3388 36.5756 25.6507 34.1098C24.5919 33.1381 23.9503 33.0419 22.6692 33.6629C21.7801 34.0914 20.994 35.2877 20.5219 36.9377C20.3776 37.435 20.0751 38.4548 19.8482 39.2041C19.6213 39.9535 19.3761 41.2071 19.3028 41.9885L19.1721 43.4094L18.1019 43.8448C16.2159 44.6102 14.6667 45.8591 10.929 49.6244C7.0263 53.5546 6.45338 53.9579 4.80339 53.9441C2.41547 53.9212 1.4163 51.4027 2.23901 47.4885C2.56901 45.921 3.20609 44.5896 4.75984 42.2246C5.64672 40.8725 5.84151 40.4256 5.84151 39.745C5.84151 39.2866 5.77505 38.9154 5.69484 38.9154C5.61463 38.9154 5.24797 39.2271 4.87901 39.6052C4.32672 40.1735 4.09297 40.2835 3.5338 40.2354C2.60339 40.1552 2.38797 39.4952 2.69964 37.6733C3.04797 35.6406 3.8913 33.4544 5.74984 29.7762C6.74214 27.8146 7.38609 26.3158 7.31734 26.1371C7.2188 25.8804 7.14776 25.8735 6.89339 26.0844C5.88964 26.9185 3.08464 32.2512 2.17484 35.0562C0.875469 39.0644 0.632552 42.4996 1.57901 43.5056C1.84943 43.7944 2.17943 43.9571 2.38339 43.9044C2.85547 43.7806 2.82109 43.996 2.14047 45.3435C1.25818 47.0875 0.708177 49.5625 0.724219 51.7579C0.735677 54.43 0.978594 55.1358 2.34901 56.4764C3.55672 57.6589 3.73089 57.7139 5.82776 57.5971C6.61609 57.5512 7.83526 56.6094 9.73276 54.5812C14.6163 49.3654 16.3946 47.9606 19.1538 47.1425C20.9482 46.6085 21.7548 46.7002 23.6203 47.6466C24.5461 48.1141 25.3023 48.5977 25.3023 48.7214C25.3023 48.8429 25.0755 49.8169 24.8028 50.8848C24.4636 52.1979 24.2917 53.4262 24.2665 54.6798C24.2321 56.4604 24.2551 56.5704 24.8555 57.5054C25.7836 58.9514 26.533 59.5908 27.4886 59.7466C29.4732 60.0675 30.3921 59.5977 33.4744 56.685C38.5253 51.9137 40.0469 51.0589 47.0915 49.0285C50.584 48.0225 52.14 47.4129 52.8573 46.7712C53.4257 46.2648 54.5669 43.9387 54.9932 42.4171C55.4928 40.641 55.5615 37.71 55.1673 35.1181C54.8671 33.1404 53.7946 27.5304 53.3248 25.4862C53.1003 24.5077 52.6603 21.7623 52.3257 19.2552L52.1034 17.5983L52.713 16.606C53.0476 16.0629 53.3225 15.4625 53.3225 15.2746C53.3225 15.0889 52.8848 14.4564 52.3509 13.8698C51.8146 13.2854 51.3769 12.6804 51.3769 12.5246C51.3769 12.371 51.1615 12.1464 50.8957 12.025C50.7284 11.9494 50.5863 11.9081 50.4557 11.9173H50.458ZM18.2234 12.0021C17.6321 12.0021 17.1326 12.025 16.8438 12.0777C15.6246 12.3069 15.3198 12.5979 14.7103 14.1242C14.0503 15.7741 14.0548 16.04 14.7446 15.8498C15.4092 15.6642 19.8001 15.5014 20.1782 15.6458C20.5173 15.7764 19.768 16.4502 17.9071 17.6969C16.5917 18.5746 16.3534 18.8037 16.3534 19.2116C16.3419 19.7456 18.3723 19.3354 19.4586 18.5814C20.35 17.965 21.5944 16.3494 22.3576 14.8208C23.0886 13.3587 23.2261 12.7446 22.8892 12.465C22.6028 12.2289 19.9994 12.0066 18.2234 12.0021ZM152.254 12.6437C152.414 12.6437 152.602 12.8248 152.673 13.0471C152.905 13.7827 152.559 13.6841 152.103 12.8867C152.018 12.7377 152.077 12.6437 152.254 12.6437ZM112.159 13.2831C111.467 13.2946 110.882 13.3289 110.525 13.4023C109.512 13.6154 109.407 13.6933 108.836 14.6444C108.038 15.9712 107.72 16.7023 107.871 16.8535C107.938 16.92 108.293 16.8329 108.662 16.6587C109.402 16.3058 113.261 16.1935 113.261 16.5212C113.261 16.6221 112.496 17.0667 111.558 17.5089C109.638 18.4187 109.152 18.7808 109.31 19.191C109.473 19.6219 111.37 19.3285 112.677 18.6708C114.37 17.8229 117.132 14.6856 116.845 13.9385C116.777 13.7621 116.664 13.6108 116.598 13.6017C116.529 13.5902 116.254 13.5558 115.986 13.5191C114.771 13.3564 113.314 13.2739 112.159 13.2831ZM161.695 16.1752C161.45 16.221 161.359 16.6175 161.622 17.3325C162.177 18.8473 162.184 18.916 161.805 19.191C161.001 19.7823 160.621 19.3721 160.249 17.5089C160.094 16.7206 159.835 16.3425 159.454 16.3425C159.122 16.3425 159.104 17.2019 159.411 18.4279C159.624 19.2666 159.61 19.3469 159.184 19.6906C158.934 19.8923 158.549 20.0321 158.327 20C157.983 19.9496 157.905 19.7639 157.809 18.7739C157.685 17.4998 157.341 16.6633 156.988 16.7825C156.681 16.8856 156.805 19.9381 157.151 20.7677C157.389 21.3406 157.493 21.4002 158.24 21.4002C158.817 21.4002 159.198 21.2741 159.512 20.9808C159.942 20.5752 159.974 20.5706 160.343 20.9052C160.625 21.1596 160.9 21.2191 161.372 21.1321C162.887 20.8479 163.559 18.8244 162.697 17.1354C162.342 16.4387 161.941 16.1294 161.695 16.1752ZM201.52 16.3723C201.286 16.3723 201.13 16.6771 200.929 17.36C200.285 19.5233 200.301 19.7204 201.238 20.8571C202.849 22.8119 204.625 24.3289 207.994 26.6344C209.307 27.5327 210.893 28.7748 211.519 29.3958C212.685 30.5554 213.67 32.2191 213.67 33.0258C213.67 33.5712 212.857 34.3389 211.947 34.6483C210.444 35.1594 207.939 34.3894 207.792 33.3673C207.763 33.1541 207.607 32.9777 207.449 32.9777C207.251 32.9777 207.031 33.4864 206.75 34.5979C206.067 37.2769 204.79 38.1316 203.211 36.9629C202.416 36.3717 202.384 36.3098 202.384 35.2969C202.384 34.7125 202.297 34.2427 202.187 34.2427C201.903 34.2427 201.238 35.4 201.098 36.1448C200.931 37.0225 199.483 38.5877 198.545 38.8948C197.562 39.2202 196.281 38.8948 195.587 38.1431C195.312 37.8452 194.606 36.7979 194.019 35.8148C193.433 34.8316 192.764 33.8531 192.534 33.6377C192.149 33.2756 192.067 33.2664 191.441 33.5277C190.639 33.8623 189.218 35.6475 188.616 37.0798C188.242 37.9598 187.697 40.7923 187.552 42.5981L187.5 43.2673L185.946 43.5285C185.093 43.6729 183.954 43.9914 183.418 44.2389C182.479 44.6698 179.625 46.4183 179.422 46.6841C179.369 46.7552 179.018 47.0233 178.645 47.2777C178.067 47.6719 175.837 49.4891 175.53 49.8146C175.242 50.1239 173.757 51.1712 172.966 51.625C172.006 52.175 170.589 52.3285 169.893 51.955C169.696 51.8496 169.288 51.3454 168.988 50.8366C168.49 49.9956 168.438 49.7366 168.438 48.0591C168.438 46.5512 168.525 45.9875 168.919 44.9952C169.421 43.7256 169.526 43.6523 170.388 43.9777C172.045 44.6079 174.407 43.9891 175.585 42.6073C176.454 41.5921 177.513 38.5075 177.632 36.6444C177.788 34.2221 177.389 33.1198 174.309 27.425L173.408 25.7635L173.74 24.8331L174.07 23.905L173.287 23.1877C171.983 21.996 170.97 21.2077 170.734 21.2077C170.521 21.2077 170.198 21.9616 169.59 23.866C169.345 24.6383 169.357 24.7071 169.803 25.1906C170.065 25.4702 170.275 25.8621 170.275 26.0591C170.275 26.2562 170.99 27.8077 171.864 29.5035C172.734 31.2016 173.956 33.5804 174.575 34.7904C175.193 36.0027 175.794 37.4396 175.911 37.985C176.105 38.8856 176.087 39.0139 175.718 39.4081C175.129 40.0337 173.388 40.5379 172.391 40.3683C169.139 39.8183 167.982 38.2119 166.02 31.5179C164.817 27.4067 162.846 22.9562 162.232 22.9562C161.975 22.9562 160.937 25.6994 160.937 26.3685C160.937 26.5794 161.157 27.3654 161.423 28.1125C162.527 31.2016 163.792 36.2502 163.886 37.9414C163.937 38.8466 163.698 39.2408 162.319 40.5173C160.609 42.1008 159.083 42.8066 157.369 42.8066H156.003L154.995 41.7731C153.319 40.0521 153.237 39.6419 153.317 33.1266C153.379 28.2179 153.354 27.6175 153.074 27.5098C152.712 27.37 152.201 27.9269 151.624 29.0864C149.99 32.3704 149.611 33.7477 148.773 39.4975C148.514 41.2644 148.2 43.0152 148.072 43.3887C147.813 44.1473 147.194 45.1121 146.738 45.4764C145.532 46.4298 143.715 44.4154 142.429 40.7006C141.769 38.7939 141.453 35.6131 141.595 32.375C141.685 30.4133 141.659 29.3935 141.524 29.311C141.187 29.1025 141.07 29.7304 140.857 32.8723C140.372 40.02 141.873 46.4848 144.568 48.8635C145.269 49.48 145.567 49.6129 146.222 49.6129C148.179 49.6014 149.139 47.4725 149.754 41.7731C150.088 38.6633 150.608 36.17 151.307 34.3092C151.58 33.5896 151.841 32.9571 151.894 32.9067C151.935 32.8562 151.963 34.9096 151.935 37.4694L151.887 42.1237L152.446 43.3337C153.104 44.7591 154.651 46.3244 155.762 46.691C157.204 47.1677 159.11 46.6429 160.889 45.2862C163.329 43.4185 164.04 42.4056 164.863 39.6075C165.101 38.7962 165.344 38.1339 165.406 38.1339C165.465 38.1339 165.905 38.9337 166.387 39.9077C166.939 41.0352 167.576 41.9931 168.133 42.5339C168.944 43.3223 168.99 43.4185 168.745 43.8127C167.924 45.1235 167.03 49.0881 167.207 50.6327C167.454 52.8166 168.887 55.255 170.145 55.6377H170.133C171.854 56.1602 174.563 54.886 177.758 52.0512C179.032 50.9214 182.55 48.5496 183.62 48.1004C185.662 47.241 189.342 47.0531 190.637 47.7429C190.939 47.9033 191.448 48.2677 191.769 48.5519C192.628 49.3104 194.595 50.4219 194.959 50.3531C195.19 50.3073 195.342 49.8696 195.539 48.6481L195.807 47.0004L194.858 46.1777C194.336 45.7239 193.433 45.0639 192.848 44.711C191.489 43.8906 189.468 41.906 189.198 41.1246C189.028 40.6387 189.056 40.3706 189.338 39.7404C189.791 38.7229 191.033 37.3571 191.499 37.3571C191.913 37.3571 192.766 38.4548 193.669 40.1437C194.462 41.6333 195.527 42.5362 196.806 42.7998C198.552 43.1596 199.859 42.495 200.846 40.7419C201.174 40.1644 201.46 39.6923 201.486 39.6923C201.513 39.6923 201.905 40.036 202.361 40.4554C204.318 42.2635 206.592 41.2369 207.144 38.2966L207.274 37.5977L208.086 38.0491C210.551 39.4264 213.123 38.8214 214.088 36.6375C214.294 36.1746 214.589 34.6896 214.761 33.2756C215.043 30.9633 215.043 30.6219 214.761 29.3706C214.583 28.5846 214.207 27.645 213.881 27.1683C213.203 26.1829 211.333 24.5008 209.804 23.5016C207.563 22.0396 205.01 20.1581 204.777 19.7983C204.689 19.6631 204.531 19.2002 204.424 18.7717C204.261 18.1254 204.075 17.91 203.321 17.5044C202.824 17.2362 202.247 16.865 202.043 16.6771C201.82 16.4777 201.653 16.37 201.513 16.3723H201.52ZM39.8063 18.2881C38.6238 18.2881 38.5184 18.3821 38.4657 19.4958C38.4382 20.11 38.4542 20.1237 39.1669 20.0687C39.9667 20.0046 40.0103 20.0573 39.6596 20.6852C39.3869 21.1687 38.9492 22.6973 38.9332 23.1946C38.9217 23.6323 39.639 24.2854 40.3769 24.51C41.2019 24.7598 42.4898 24.5787 44.0482 23.9944C45.4278 23.4764 46.5255 22.7133 46.2665 22.4521C46.184 22.3696 45.6569 22.4681 45.0978 22.6744C44.4286 22.9219 43.5715 23.0525 42.5884 23.0525C41.2753 23.0525 41.0369 22.9998 40.5923 22.5827C39.9942 22.0189 40.0423 21.7348 40.9865 20.2864C41.3509 19.725 41.6488 19.136 41.6488 18.9779C41.6488 18.531 40.998 18.2881 39.8063 18.2881ZM144.705 21.2054C144.196 21.2054 143.424 24.5764 143.424 26.7833C143.424 28.1721 143.456 28.2798 144.027 28.816C144.359 29.1254 144.824 29.3798 145.06 29.3798C146.002 29.3798 146.834 27.8971 146.697 26.4602C146.621 25.6558 146.126 25.5275 145.952 26.2654C145.706 27.3035 144.396 26.7444 144.396 25.6031C144.396 25.2731 144.57 24.2808 144.781 23.4008C145.166 21.8035 145.145 21.2077 144.707 21.2054H144.705ZM195.864 21.8517C195.66 21.8517 195.486 21.87 195.353 21.8929C194.251 22.0785 193.181 23.1762 192.576 24.7414C191.835 26.655 191.888 26.7971 193.013 25.9377C193.79 25.3441 195.067 25.1585 196.845 25.3808C197.792 25.5 197.902 25.5573 197.686 25.8139C197.388 26.176 195.328 27.5877 194.849 27.7619C194.063 28.046 193.435 28.6396 193.435 29.1002C193.435 29.4233 193.545 29.5723 193.777 29.5723C194.382 29.5723 196.006 29.0016 196.875 28.4929C198.458 27.5648 201.073 23.1189 200.42 22.4635C200.122 22.1679 197.285 21.8127 195.864 21.8517ZM75.2286 24.7094C74.8298 24.7094 73.48 27.6427 73.7069 28.0162C73.8055 28.1766 74.6236 28.7633 75.5265 29.3202C76.4271 29.8748 77.3117 30.3331 77.4882 30.3423C77.9007 30.356 79.4017 28.1354 79.4017 27.5144C79.4017 27.2439 79.2207 26.946 78.964 26.7925C78.7234 26.6481 77.8457 26.1187 77.0138 25.6192C76.1819 25.1196 75.3775 24.7094 75.2286 24.7094ZM12.0978 27.2829C11.7953 27.3012 11.5432 27.4525 11.3232 27.7321C10.9267 28.2385 10.7617 29.1735 11.0276 29.4371C11.094 29.5035 11.3232 29.4669 11.534 29.3546C12.1619 29.02 12.3934 29.4554 11.8778 29.9962C10.5761 31.3552 10.6128 32.5973 12.0863 36.9698C12.783 39.0369 13.0488 42.0458 12.7028 43.9204C12.5996 44.4796 12.563 44.986 12.6226 45.0433C13.1955 45.6162 13.663 43.6683 13.6951 40.5677C13.7248 37.891 13.5942 37.1279 12.6294 34.2152C12.3223 33.2894 12.0726 32.3544 12.0726 32.1344C12.0726 31.5546 12.8082 31.1283 13.8165 31.1283C14.3023 31.1283 14.7951 31.0619 14.9119 30.9816C15.4298 30.6356 15.824 29.185 15.3978 29.185C15.2992 29.185 14.7309 28.7839 14.1305 28.2958C13.2551 27.5831 12.6042 27.2508 12.0978 27.2829ZM119.68 29.185C119.575 29.185 119.49 29.7762 119.49 30.5073C119.49 31.9235 119.3 32.2994 118.587 32.2994C118.014 32.2994 117.934 32.1367 117.773 30.6929C117.677 29.8014 117.563 29.476 117.349 29.476C117.111 29.476 117.052 29.7717 117.068 31.0114C117.079 32.4369 117.116 32.5766 117.613 33.0052C118.239 33.5414 118.525 33.5712 119.293 33.1748C119.811 32.9067 119.877 32.9135 120.111 33.2412C120.251 33.4383 120.496 33.6491 120.656 33.711C121.16 33.9058 121.55 33.8646 122.183 33.5483C123.457 32.9135 123.732 31.6577 122.927 30.1383C122.343 29.0337 121.717 28.9398 121.747 29.9619C121.759 30.3377 121.887 30.9312 122.036 31.2841C122.27 31.841 122.267 31.951 122.015 32.1091C121.545 32.4071 120.885 32.3246 120.778 31.9579C120.723 31.77 120.62 31.2658 120.549 30.8373C120.407 29.9939 119.983 29.1827 119.68 29.1827V29.185ZM72.1417 35.2923H72.0982C71.8896 35.3358 71.578 35.9064 71.1563 37.0042C69.6553 40.9183 69.6736 42.935 71.2182 44.0671C71.8873 44.5575 72.3686 44.5689 72.9438 44.1083C73.3013 43.8219 73.8719 42.6371 74.0163 41.8831C74.2661 40.5654 73.519 40.1598 73.1776 41.4271C72.9369 42.3231 72.6848 42.4606 71.963 42.0939C70.8446 41.5302 70.8263 40.8679 71.8438 37.9048C72.1623 36.9744 72.3961 36.0164 72.3594 35.7781C72.3159 35.471 72.2425 35.3083 72.1417 35.29V35.2923ZM79.9311 36.4541C79.7134 36.4358 79.2734 36.9446 78.8013 38.0033C78.43 38.8421 78.3475 39.3554 78.3475 41.0444L78.3315 43.0794L79.0075 43.5354H79.019C79.4934 43.8562 79.8417 43.9571 80.1855 43.87C80.4559 43.8012 80.6828 43.7325 80.6965 43.7141C80.708 43.6958 80.9944 43.2971 81.3313 42.825C81.9592 41.9427 82.099 41.3675 81.7323 41.1429C81.6178 41.0719 81.3336 41.1841 81.0998 41.395C80.3596 42.0596 80.1832 42.0894 79.6905 41.6241C79.0442 41.0214 79.0511 39.7014 79.7065 38.0881C80.1396 37.0248 80.1488 36.4748 79.9334 36.4541H79.9311ZM108.671 38.1362C107.339 38.1362 106.89 38.3975 106.643 39.3164C106.524 39.7587 106.453 40.1483 106.487 40.1827C106.521 40.2171 106.954 40.1529 107.454 40.0383C109.113 39.6579 109.395 40.1346 108.29 41.4546C107.342 42.5889 106.714 43.7394 106.56 44.6125C106.448 45.2564 106.505 45.4191 107.009 45.9256C107.475 46.3908 107.752 46.5054 108.43 46.4985C109.361 46.4985 111.524 45.6483 112.702 44.8325C113.77 44.0946 114.022 43.0587 113.018 43.5331C110.843 44.5621 108.662 45.0204 108.107 44.5598C107.75 44.2641 107.724 43.65 108.057 43.3062C110.573 40.6983 110.878 38.1362 108.671 38.1362ZM40.943 39.5891C40.888 39.5777 40.8421 39.5891 40.8078 39.6258C40.5465 39.8894 40.684 40.8679 41.1057 41.7364L41.5365 42.621L41.03 43.1252C40.535 43.6225 40.519 43.6248 40.1546 43.2581C39.9507 43.0541 39.6688 42.3666 39.5267 41.7273C39.2792 40.6044 38.8713 39.8871 38.4794 39.8871C38.358 39.8871 38.3373 40.4944 38.4198 41.5302C38.5459 43.0702 38.5275 43.1871 38.1448 43.391C37.9203 43.5125 37.5444 43.5835 37.3084 43.5491C36.9326 43.4964 36.8638 43.3269 36.7332 42.1352C36.6003 40.9412 36.394 40.4852 35.9815 40.476C35.8326 40.476 35.5873 41.6287 35.6973 41.8098C35.7409 41.8785 35.7982 42.4171 35.8257 43.006C35.8738 44.0877 36.0846 44.7339 36.4719 44.9929C36.8753 45.2633 37.7048 45.1419 38.2159 44.7385L38.7292 44.3352L39.2425 44.7385C39.5542 44.986 40.0401 45.1419 40.4869 45.1419C41.0759 45.1419 41.3326 45.0135 41.8046 44.475C42.5792 43.5927 42.719 42.8548 42.3523 41.5898C42.098 40.7144 41.3188 39.6556 40.943 39.5891ZM93.4725 42.0275C92.918 42.0275 92.439 42.7241 92.439 43.5331C92.439 44.1289 92.4757 44.1656 92.9546 44.0464C93.3167 43.9548 93.429 43.9823 93.3328 44.1404C93.2571 44.2619 93.1105 44.3627 93.0028 44.3627C92.5146 44.3627 92.0288 45.1533 91.8317 46.2716C91.6278 47.4244 91.6507 47.5458 92.4344 49.8191C93.2984 52.3239 93.649 54.5629 93.4634 56.3802C93.3855 57.1341 93.4221 57.4 93.6078 57.4C94.2288 57.4 94.3755 56.7423 94.3755 53.8983C94.3755 51.2469 94.3411 50.9764 93.7888 49.4227C92.9134 46.9683 92.7209 46.1433 92.9707 45.8935C93.0853 45.7789 93.7796 45.5612 94.513 45.41C95.9407 45.1166 96.5892 44.6171 96.4861 43.8952C96.4196 43.4323 94.1532 42.0275 93.4725 42.0275ZM211.888 43.2673C211.784 43.2787 211.7 43.3429 211.583 43.4483C211.397 43.6179 211.069 44.09 210.856 44.4979C210.643 44.9058 210.354 45.3596 210.212 45.5062C210.073 45.6552 209.985 46.0058 210.018 46.2854C210.063 46.6819 210.469 47.0646 211.828 48.0042C212.793 48.6687 213.629 49.2141 213.693 49.221C213.984 49.2416 215.488 47.1219 215.708 46.3748C215.811 46.0287 215.634 45.8019 214.706 45.0937C214.088 44.6194 213.208 43.9846 212.749 43.6844C212.275 43.3727 212.059 43.2489 211.888 43.2673ZM153.808 48.4556C153.517 48.4694 153.161 48.5633 152.907 48.7306C152.671 48.8864 151.39 49.4594 150.061 50.0071C145.283 51.971 144.595 52.4271 144.595 53.6439C144.595 54.0152 144.661 54.2856 144.742 54.2444C147.006 53.0916 150.872 51.3683 152.983 50.5685C153.452 50.3921 154.325 49.1523 154.325 48.6664C154.325 48.5106 154.099 48.4419 153.808 48.4556ZM189.051 50.0621C188.861 50.0621 188.618 50.1262 188.329 50.2614C187.983 50.4264 186.604 51.0498 185.268 51.6502C183.929 52.2483 182.724 52.8831 182.591 53.0619C182.456 53.2429 182.348 53.6783 182.348 54.0312C182.348 54.3864 182.394 54.6752 182.451 54.6752C182.511 54.6752 183.363 54.2925 184.351 53.825C185.336 53.3552 186.755 52.7341 187.504 52.4431C188.948 51.8839 189.544 51.3591 189.544 50.6327C189.544 50.2591 189.372 50.0666 189.053 50.0621H189.051ZM218.937 50.25C218.728 50.2316 218.334 50.3531 217.99 50.5456C217.598 50.7633 216.226 51.2927 214.942 51.7212C211.702 52.7983 209.94 53.4881 209.562 53.8273C209.28 54.0816 208.812 55.4544 208.812 56.0273C208.812 56.3664 209.293 56.2633 210.497 55.6698C211.122 55.3604 212.729 54.7462 214.067 54.3062C215.405 53.8662 216.652 53.4194 216.838 53.3116C217.023 53.2062 217.344 53.1191 217.55 53.1191C217.754 53.1191 218.153 52.835 218.43 52.4866C218.71 52.1383 219.024 51.7487 219.129 51.6181C219.427 51.2514 219.354 50.3944 219.012 50.2637C218.992 50.2523 218.964 50.25 218.937 50.2477V50.25ZM19.0782 54.0931C18.849 54.0931 18.5236 54.5262 18.0951 55.4062C17.7421 56.1281 17.4328 56.7469 17.4098 56.7812C17.3846 56.8156 16.9973 56.6139 16.5505 56.3298C15.7782 55.8439 13.6767 55.0648 13.1336 55.0648C12.9136 55.0648 11.4905 57.7414 11.4905 58.1562C11.4905 58.4725 12.1986 58.9148 13.2413 59.2494C13.8303 59.4396 14.5315 59.7535 14.7996 59.9506C15.0655 60.1454 15.3817 60.3127 15.4986 60.3127C15.808 60.3241 16.2411 59.7764 16.8392 58.6169C17.1303 58.0554 17.4053 57.5948 17.4488 57.5948C17.4946 57.5948 18.3746 58.0371 19.4059 58.5756C20.4394 59.1164 21.3996 59.5129 21.5417 59.4579C21.6838 59.4052 21.9726 59.0706 22.1811 58.72C22.3896 58.3694 22.6371 57.9935 22.7311 57.8835C23.1092 57.4481 23.3636 56.3733 23.1528 56.1189C22.8594 55.766 19.493 54.0931 19.0782 54.0931Z" fill="#FFE6A7"/>
</g>
</svg>
