<svg width="80" height="81" viewBox="0 0 80 81" fill="none" xmlns="http://www.w3.org/2000/svg">
<g filter="url(#filter0_i_1_1199)">
<rect y="0.899902" width="80" height="80" rx="40" fill="#410920"/>
<rect y="0.899902" width="80" height="80" rx="40" fill="url(#paint0_linear_1_1199)"/>
<rect x="1.5" y="2.3999" width="77" height="77" rx="38.5" stroke="#FFE6A7" stroke-width="3"/>
<mask id="mask0_1_1199" style="mask-type:luminance" maskUnits="userSpaceOnUse" x="39" y="37" width="23" height="32">
<path d="M39.92 37.7798H61.2V68.0592H39.92V37.7798Z" fill="white"/>
</mask>
<g mask="url(#mask0_1_1199)">
<path d="M42.0137 68.0872C41.4588 68.0872 41.0069 67.6347 41.0069 67.0803V64.059C41.0069 63.579 40.8769 62.9815 40.7156 62.2259C40.4125 60.8297 40 58.914 40 56.0034C40 52.6484 45.4594 48.2978 46.0806 47.814L51.395 44.1797C52.3075 43.059 52.9094 42.1147 53.3931 41.3478C54.9194 38.9403 55.7762 37.8784 60.1388 37.8784C60.4338 37.8784 60.7169 38.0084 60.9094 38.2365C61.0981 38.4609 61.1812 38.7597 61.13 39.0547C61.1025 39.2197 60.4219 43.1928 59.045 46.339C58.9937 46.4609 58.9156 46.5715 58.8212 46.6615C58.7894 46.689 55.6744 49.6865 53.8256 51.6572C53.4437 52.0622 52.8069 52.0822 52.4019 51.7047C51.9962 51.3228 51.9769 50.6859 52.3544 50.2803C54.03 48.4947 56.63 45.9772 57.2794 45.3478C58.0737 43.4759 58.6206 41.2615 58.9075 39.924C56.5906 40.0615 56.1894 40.699 55.0962 42.4253C54.565 43.2634 53.9006 44.3059 52.8619 45.5684C52.7987 45.6428 52.7319 45.7059 52.6531 45.7572L47.2687 49.439C45.2662 51.004 42.0137 54.2097 42.0137 56.0034C42.0137 58.6978 42.4031 60.4915 42.6825 61.8015C42.8631 62.6434 43.0206 63.3672 43.0206 64.059V67.0803C43.0206 67.6347 42.5681 68.0872 42.0137 68.0872Z" fill="#FFE6A7"/>
</g>
<mask id="mask1_1_1199" style="mask-type:luminance" maskUnits="userSpaceOnUse" x="52" y="26" width="15" height="43">
<path d="M52.08 26.5801H66.1393V68.0595H52.08V26.5801Z" fill="white"/>
</mask>
<g mask="url(#mask1_1_1199)">
<path d="M53.09 68.0874C52.5356 68.0874 52.0831 67.6349 52.0831 67.0805V62.0455C52.0831 58.4974 56.3588 54.5524 59.7963 51.3861C61.1538 50.1349 63.0063 48.4243 63.1675 47.8693C63.1594 46.5874 64.0444 37.938 64.1588 36.813L63.2813 28.903C62.9631 29.0249 62.6875 29.2255 62.4356 29.5005C60.9094 31.2036 60.9844 35.3218 61.1375 36.7618C61.1419 36.7968 61.1456 36.8361 61.1456 36.8718V38.8855C61.1456 39.4405 60.6931 39.8924 60.1388 39.8924C59.5838 39.8924 59.1319 39.4405 59.1319 38.8855V36.9268C59.045 36.0811 58.5969 30.7711 60.9331 28.1593C61.7669 27.2311 62.8844 26.7393 64.1663 26.7393C64.6819 26.7393 65.1106 27.1249 65.1656 27.6361L66.1725 36.6986C66.1844 36.7693 66.1844 36.8405 66.1725 36.9111C65.8969 39.6093 65.1731 46.8549 65.1731 47.948C65.1731 49.1161 63.8713 50.3674 61.1613 52.8649C58.18 55.6143 54.0969 59.3786 54.0969 62.0455V67.0805C54.0969 67.6349 53.6444 68.0874 53.09 68.0874Z" fill="#FFE6A7"/>
</g>
<mask id="mask2_1_1199" style="mask-type:luminance" maskUnits="userSpaceOnUse" x="18" y="37" width="23" height="32">
<path d="M18.8 37.7798H40.08V68.0592H18.8V37.7798Z" fill="white"/>
</mask>
<g mask="url(#mask2_1_1199)">
<path d="M37.9857 68.0872C37.4313 68.0872 36.9788 67.6347 36.9788 67.0803V64.059C36.9788 63.3672 37.1363 62.6434 37.317 61.8015C37.6007 60.4915 37.9857 58.6978 37.9857 56.0034C37.9857 54.2059 34.7288 51.0003 32.6801 49.4034L27.3463 45.7572C27.2713 45.7059 27.2007 45.6428 27.1413 45.5684C26.0995 44.3059 25.4345 43.2634 24.9032 42.4253C23.8101 40.699 23.4051 40.0615 21.092 39.924C21.3795 41.2615 21.9257 43.4759 22.7207 45.3478C23.3695 45.9772 25.9695 48.4947 27.6451 50.2803C28.0226 50.6859 28.0032 51.3228 27.5976 51.7047C27.1926 52.0859 26.5557 52.0622 26.1738 51.6572C24.3251 49.6865 21.2101 46.689 21.1788 46.6615C21.0801 46.5715 21.0057 46.4609 20.9507 46.339C19.5776 43.1928 18.897 39.2197 18.8695 39.0547C18.8188 38.7597 18.9013 38.4609 19.0938 38.2365C19.2826 38.0084 19.5657 37.8784 19.8607 37.8784C24.2232 37.8784 25.0807 38.9403 26.6063 41.3478C27.0907 42.1147 27.692 43.059 28.6051 44.1797L33.8638 47.779C34.5401 48.2978 40.0001 52.6484 40.0001 56.0034C40.0001 58.914 39.587 60.8297 39.2838 62.2259C39.1226 62.9815 38.9926 63.579 38.9926 64.059V67.0803C38.9926 67.6347 38.5407 68.0872 37.9857 68.0872Z" fill="#FFE6A7"/>
</g>
<mask id="mask3_1_1199" style="mask-type:luminance" maskUnits="userSpaceOnUse" x="13" y="26" width="15" height="43">
<path d="M13.8193 26.5801H27.92V68.0595H13.8193V26.5801Z" fill="white"/>
</mask>
<g mask="url(#mask3_1_1199)">
<path d="M26.9093 68.0874C26.3549 68.0874 25.9024 67.6349 25.9024 67.0805V62.0455C25.9024 59.3786 21.8193 55.6143 18.8381 52.8649C16.1281 50.3674 14.8262 49.1161 14.8262 47.948C14.8262 46.8549 14.1024 39.6093 13.8231 36.9111C13.8149 36.8405 13.8149 36.7693 13.8268 36.6986L14.8337 27.6361C14.8887 27.1249 15.3174 26.7393 15.8331 26.7393C17.1149 26.7393 18.2324 27.2311 19.0624 28.1593C21.4024 30.7711 20.9543 36.0811 20.8674 36.9268V38.8855C20.8674 39.4405 20.4156 39.8924 19.8606 39.8924C19.3062 39.8924 18.8537 39.4405 18.8537 38.8855V36.8718C18.8537 36.8361 18.8537 36.7968 18.8618 36.7618C19.0187 35.3218 19.0899 31.2036 17.5637 29.5005C17.3118 29.2255 17.0368 29.0249 16.7181 28.903L15.8406 36.813C15.9549 37.938 16.8399 46.5911 16.8399 47.948C16.9893 48.4243 18.8462 50.1349 20.2031 51.3861C23.6406 54.5524 27.9162 58.4974 27.9162 62.0455V67.0805C27.9162 67.6349 27.4637 68.0874 26.9093 68.0874Z" fill="#FFE6A7"/>
</g>
<mask id="mask4_1_1199" style="mask-type:luminance" maskUnits="userSpaceOnUse" x="20" y="13" width="40" height="33">
<path d="M20.72 13.6992H59.28V45.9398H20.72V13.6992Z" fill="white"/>
</mask>
<g mask="url(#mask4_1_1199)">
<path d="M29.9299 15.7263C26.5118 15.7263 22.8818 18.5032 22.8818 23.6438C22.8818 29.67 30.2056 38.2563 39.9999 43.775C49.7899 38.2563 57.1181 29.67 57.1181 23.6438C57.1181 18.5032 53.4874 15.7263 50.0693 15.7263C45.8562 15.7263 42.3912 20.3519 40.9556 24.6507C40.8181 25.06 40.4324 25.3394 39.9999 25.3394C39.5668 25.3394 39.1818 25.06 39.0437 24.6507C37.6081 20.3519 34.1431 15.7263 29.9299 15.7263ZM39.9999 45.9344C39.8343 45.9344 39.6656 45.895 39.5156 45.8125C28.7106 39.8813 20.8674 30.5588 20.8674 23.6438C20.8674 17.1932 25.5368 13.7119 29.9299 13.7119C34.3593 13.7119 37.9581 17.4138 39.9999 21.6613C42.0412 17.4138 45.6362 13.7119 50.0693 13.7119C54.4624 13.7119 59.1318 17.1932 59.1318 23.6438C59.1318 30.5588 51.2887 39.8813 40.4837 45.8125C40.3343 45.895 40.1649 45.9344 39.9999 45.9344Z" fill="#FFE6A7"/>
</g>
</g>
<defs>
<filter id="filter0_i_1_1199" x="-25" y="-24.1001" width="105" height="105" filterUnits="userSpaceOnUse" color-interpolation-filters="sRGB">
<feFlood flood-opacity="0" result="BackgroundImageFix"/>
<feBlend mode="normal" in="SourceGraphic" in2="BackgroundImageFix" result="shape"/>
<feColorMatrix in="SourceAlpha" type="matrix" values="0 0 0 0 0 0 0 0 0 0 0 0 0 0 0 0 0 0 127 0" result="hardAlpha"/>
<feMorphology radius="3" operator="erode" in="SourceAlpha" result="effect1_innerShadow_1_1199"/>
<feOffset dx="-25" dy="-25"/>
<feGaussianBlur stdDeviation="20"/>
<feComposite in2="hardAlpha" operator="arithmetic" k2="-1" k3="1"/>
<feColorMatrix type="matrix" values="0 0 0 0 0.254902 0 0 0 0 0.0352941 0 0 0 0 0.12549 0 0 0 1 0"/>
<feBlend mode="normal" in2="shape" result="effect1_innerShadow_1_1199"/>
</filter>
<linearGradient id="paint0_linear_1_1199" x1="80" y1="80.8999" x2="0" y2="0.899902" gradientUnits="userSpaceOnUse">
<stop stop-color="#4A2E1C" stop-opacity="0.3"/>
<stop offset="1" stop-opacity="0"/>
</linearGradient>
</defs>
</svg>
